<?xml version="1.0" encoding="utf-8"?>
<!-- Generator: Adobe Illustrator 27.4.1, SVG Export Plug-In . SVG Version: 6.00 Build 0)  -->
<svg version="1.1" xmlns="http://www.w3.org/2000/svg" xmlns:xlink="http://www.w3.org/1999/xlink" x="0px" y="0px"
	 viewBox="0 0 1254.76 792.95" style="enable-background:new 0 0 1254.76 792.95;" xml:space="preserve">
<style type="text/css">
	.st0{fill:url(#SVGID_1_);}
	.st1{fill:url(#SVGID_00000075144300533642812460000007061945800125312917_);}
	.st2{fill:none;stroke:#231F20;stroke-width:6;stroke-miterlimit:10;}
	.st3{fill:none;stroke:#231F20;stroke-width:4;stroke-miterlimit:10;}
	.st4{fill:none;stroke:#231F20;stroke-width:8;stroke-miterlimit:10;}
	.st5{fill:#EBD773;}
	.st6{fill:none;stroke:#00A651;stroke-width:8;stroke-miterlimit:10;}
	.st7{fill:#231F20;stroke:#231F20;stroke-miterlimit:10;}
	.st8{fill:#B9DCE5;stroke:#FFFFFF;stroke-miterlimit:10;}
	.st9{fill:#CF84B0;stroke:#FFFFFF;stroke-miterlimit:10;}
	.st10{fill:#DE9E7C;stroke:#FFFFFF;stroke-miterlimit:10;}
	.st11{fill:#EADA6B;stroke:#FFFFFF;stroke-miterlimit:10;}
	.st12{fill:#EFE8A5;stroke:#FFFFFF;stroke-miterlimit:10;}
	.st13{fill:#C6E8D9;stroke:#FFFFFF;stroke-miterlimit:10;}
	.st14{fill:#90ACE0;stroke:#FFFFFF;stroke-miterlimit:10;}
	.st15{fill:url(#SVGID_00000109025894522383379650000001191953516221150854_);}
	.st16{fill:url(#SVGID_00000135667803818490836950000006257294711551260812_);}
	.st17{fill:#E97FB7;stroke:#231F20;stroke-width:2;stroke-miterlimit:10;}
	.st18{fill:#F1E7D9;}
	.st19{fill:#231F20;}
	
		.st20{opacity:0.9;fill:url(#SVGID_00000090279157740777542530000015496016763867564974_);stroke:#231F20;stroke-width:2;stroke-miterlimit:10;}
	.st21{fill:none;stroke:#009444;stroke-miterlimit:10;}
	.st22{fill:#D1D3D4;stroke:#231F20;stroke-width:2;stroke-miterlimit:10;}
	.st23{fill:#BCBEC0;stroke:#231F20;stroke-width:2;stroke-miterlimit:10;}
	.st24{fill:none;stroke:#231F20;stroke-width:2;stroke-linecap:round;stroke-miterlimit:10;}
	.st25{fill:#F4D8B0;stroke:#231F20;stroke-width:2;stroke-linecap:round;stroke-linejoin:round;stroke-miterlimit:10;}
	.st26{fill:#F4D8B0;stroke:#231F20;stroke-width:2;stroke-miterlimit:10;}
	.st27{fill:none;stroke:#231F20;stroke-miterlimit:10;}
	.st28{fill:none;stroke:#231F20;stroke-width:3;stroke-miterlimit:10;}
	.st29{fill:#B8B8B6;stroke:#231F20;stroke-width:2;stroke-miterlimit:10;}
	.st30{fill:#8D8680;stroke:#231F20;stroke-miterlimit:10;}
	.st31{fill:#8C827C;stroke:#231F20;stroke-miterlimit:10;}
	.st32{fill:#B6ADA7;stroke:#231F20;stroke-miterlimit:10;}
	.st33{fill:#03E2FC;stroke:#231F20;stroke-width:2;stroke-miterlimit:10;}
	.st34{fill:#FF92A9;stroke:#231F20;stroke-width:2;stroke-miterlimit:10;}
	.st35{fill:#59FEFF;stroke:#231F20;stroke-width:2;stroke-miterlimit:10;}
	.st36{fill:#FEFE00;stroke:#231F20;stroke-width:2;stroke-miterlimit:10;}
	.st37{fill:#231F20;stroke:#231F20;stroke-width:0.25;stroke-miterlimit:10;}
	.st38{fill:#D5A16A;}
	.st39{fill:#FFFFFF;}
	.st40{fill:url(#SVGID_00000032614990620014170640000012850121903770861469_);}
	.st41{fill:url(#SVGID_00000183244880480270153280000010970588406844410004_);stroke:#FFF200;stroke-width:3;stroke-miterlimit:10;}
</style>
<g id="image">
</g>
<g id="background">
</g>
<g id="page_2">
</g>
<g id="page_3">
</g>
<g id="front_page_1">
	<linearGradient id="SVGID_1_" gradientUnits="userSpaceOnUse" x1="0.6903" y1="396.4746" x2="627.3804" y2="396.4746">
		<stop  offset="5.547958e-03" style="stop-color:#5F87AA"/>
		<stop  offset="0.4996" style="stop-color:#96C6E2"/>
		<stop  offset="1" style="stop-color:#5F87AA"/>
	</linearGradient>
	<rect x="0.69" y="-0.22" class="st0" width="626.69" height="793.39"/>
	
		<linearGradient id="SVGID_00000007422093500627015940000004762763978353205951_" gradientUnits="userSpaceOnUse" x1="627.3804" y1="396.4734" x2="1254.7607" y2="396.4734">
		<stop  offset="0.0226" style="stop-color:#5F87AA"/>
		<stop  offset="0.4918" style="stop-color:#96C6E2"/>
		<stop  offset="0.6125" style="stop-color:#8EBDDA"/>
		<stop  offset="0.8104" style="stop-color:#78A4C4"/>
		<stop  offset="0.9968" style="stop-color:#5F87AA"/>
	</linearGradient>
	<polygon style="fill:url(#SVGID_00000007422093500627015940000004762763978353205951_);" points="627.38,-0.22 1254.76,-0.22 
		1254.76,793.17 627.38,793.17 	"/>
	<g id="cup">
		<path class="st17" d="M483.8,441.82c0,0,7.2,4.27-0.9,53.86c0,0,10.38,5.91,7.13,20.04c-3.25,14.13-17.49,15.34-17.49,15.34
			s-10.34,24.67-29.07,47.55c0,0,64.94-10.29,75.16-64.77S492.38,444.69,483.8,441.82z"/>
		<ellipse class="st17" cx="300.34" cy="628.7" rx="84.84" ry="29.11"/>
		<path class="st18" d="M129.28,464.63c0,0-25.77-26,25.22-46.36s173.98-17.8,173.98-17.8s174.19,4.58,144.81,59.94
			c0,0-33.41,43.48-165.21,39.17C212.91,496.46,165.36,491.47,129.28,464.63z"/>
		<path class="st17" d="M382.1,622.16c0,0,38.48-11.58,64.11-46.04c25.63-34.46,30.47-52.4,41-91.15
			c10.53-38.76-8.42-50.94-8.42-50.94s-12.84-24.19-136.24-37.33c-48.65-5.18-21.47-1.88-21.47-1.88s-111.45-13.47-186.05,25.94
			c0,0-40.15,19.29-10.56,96.15c30.59,79.45,85.05,102.86,94.47,105.97C258.74,636.01,349,641.45,382.1,622.16z"/>
	</g>
	<g id="tea">
		
			<linearGradient id="SVGID_00000175299244844488006340000000398257010684106154_" gradientUnits="userSpaceOnUse" x1="127.4523" y1="457.4088" x2="466.328" y2="457.4088">
			<stop  offset="0.0225" style="stop-color:#3C974B"/>
			<stop  offset="0.1014" style="stop-color:#54A550"/>
			<stop  offset="0.2676" style="stop-color:#92C75D"/>
			<stop  offset="0.2809" style="stop-color:#97CA5E"/>
			<stop  offset="0.5218" style="stop-color:#8BC761"/>
			<stop  offset="0.7213" style="stop-color:#97CA5E"/>
			<stop  offset="0.8013" style="stop-color:#7FBC59"/>
			<stop  offset="0.9697" style="stop-color:#419A4C"/>
			<stop  offset="0.9831" style="stop-color:#3C974B"/>
		</linearGradient>
		
			<path style="opacity:0.9;fill:url(#SVGID_00000175299244844488006340000000398257010684106154_);stroke:#231F20;stroke-width:2;stroke-miterlimit:10;" d="
			M271.28,417.65c-101.77,1.69-114.51,18.17-114.51,18.17s-25.27,9.86-29.31,24.01c0,0,17.69,29.06,129.13,35.38
			c0,0,153.23,15.01,209.65-34.23c0,0,3.08-18.45-27.14-24.17C408.87,431.09,395.98,415.57,271.28,417.65z"/>
		<path class="st21" d="M154.79,461.18c0,0-4.72,11.77,50.55,7.81"/>
		<path class="st21" d="M244.71,463.78c13.54-2.59,27.54-7.4,35.82-12.74"/>
		<path class="st21" d="M308.9,429.68c0,0-5.49,13.17,35.81,27.73"/>
		<path class="st21" d="M448.94,460.32c0,0-13.57,8.01-38.68,5.48"/>
	</g>
	<g id="tea_bag">
		<path class="st22" d="M313.65,432.09c0,0,16.97,32.03,117.39,28.87l15.85-74.12l-12.05-30.39l-78.93-16.83l-26.23,20.9
			L313.65,432.09z"/>
		<path class="st23" d="M446.88,387.04l0.28,40.91c0,0,0,0,0,0.01c-0.12,0.14-10.43,13,0.53,15.39c0.01,0,0.02,0,0.02,0.01
			c0,0.35,0.15,11.02,0,13.41c0,0.01-0.01,0.02-0.02,0.02l-16.34,4.18c-0.21,0.07-0.42-0.11-0.37-0.33l15.86-73.6
			C446.85,387.01,446.88,387.02,446.88,387.04z"/>
		<path d="M447.78,443.97c0,0,13.44-23.31,31.01-9.95c0,0,5.86-2.01-0.73-8.24s-28.44-1.83-31.24,2.79
			C446.82,428.58,431.04,441.57,447.78,443.97z"/>
		<path d="M301.1,393.5l10.26,0.12c0,0,6.99-0.7,8.84,10.3l2.83-11.32c0,0-5.41-7.9-15.33-4.77
			C307.7,387.83,304.19,388.68,301.1,393.5z"/>
		<path class="st24" d="M394.5,410.09c0,0-1.98,10.34,3.86,10.65c5.85,0.31,7.2-8.14,7.2-8.14"/>
		<path class="st24" d="M352.7,403.24c0,0-1.98,10.34,3.86,10.65c5.85,0.31,7.2-8.14,7.2-8.14"/>
		<path class="st24" d="M367.08,421.44c0,0,8.17,8.58,19.23,3.54"/>
	</g>
	<g id="cookie">
		<path class="st26" d="M250.93,361.19c-1.4-6.16,0.95-10.82,3.6-11.77c-2.05,0.53,14.49-4.32,11.05,10.35c0,0-2.42,4.59-8.09,5.17
			c0,0,8.59-1.92,10.76,4.09s-3.42,8.76-3.42,8.76s-2.92,1.25-4.84,1.59s9.93-0.5,10.51,3.75c0.58,4.26-0.08,8.09-3.59,9.51
			c-3.5,1.42-4.92,1-4.92,1s8.68-1.25,10.43,3.25c1.75,4.51-1.08,9.76-1.08,9.76s-3.25,2.25-6.59,2.25c0,0,10.26-1,11.51,4.09
			c1.25,5.09-1.84,7.68-1.84,7.68s-1.5,2.59-6.92,2c0,0,11.68-0.42,10.43,8.01c-1.25,8.43-8.26,7.68-8.26,7.68
			s13.18-1.08,10.51,6.59c-2.67,7.68-35.25,14.35-35.25,14.35c5.76-0.92-72.47,13.85-82.6,3.24c-6.25-6.55,12.96-6.77,8.11-7.26
			c0,0-12.31,0.66-11.59-9.3s9.3-6.78,9.3-6.78s-13.45,1.62-12.25-7.02c1.2-8.64,10.32-6.66,10.32-6.66s-13.69,1.44-11.59-9.54
			c0,0,1.02-6.24,8.28-5.64c0,0-13.33,1.68-11.05-8.52c0,0,0.06-5.22,9.18-6.06c0,0-12.79,2.16-11.41-8.22c0,0-0.6-4.8,8.82-6.18
			c0,0-15.25,2.49-10.14-11.95c0,0,5.1-7.23,13.15-0.57c0,0,2.34,2.88,2.64,6.6c0,0-1.74-11.77,6.66-11.35s7.74,8.82,7.74,8.82
			s-1.5-12.37,7.86-11.59c0,0,6.3-0.66,6.42,9.66c0,0-1.98-12.37,7.32-12.13c0,0,6.72-1.2,7.08,8.94c0,0-1.62-10.62,6.3-11.11
			c0,0,7.62-1.08,7.5,9.24c0,0-0.6-12.31,7.02-11.83c0,0,6.72-0.9,7.26,9.42c0,0-1.26-11.47,6.12-11.83
			C241.45,351.71,249.85,349.67,250.93,361.19"/>
		<path class="st24" d="M234.78,399.24c0,0,0.23,8.19,6.52,8.36c0,0,7.01,1.19,6.63-8.78"/>
		<path class="st24" d="M184.83,404.57c0,0,0.23,8.19,6.52,8.36c0,0,7.01,1.19,6.63-8.78"/>
		<path class="st24" d="M208.42,419.06c0,0,10.84,6.96,19.36-2.71"/>
		<path d="M270.5,383.14c0,0,10.97-0.39,13.99,9.12l-10.99,0.25l-5.72-0.26C267.78,392.25,271.72,389.22,270.5,383.14z"/>
		<path d="M151.51,405.76c0,0-6.48,3.31-5.9,9.64l12.81-4.75C158.42,410.66,152.52,410.23,151.51,405.76z"/>
	</g>
</g>
<g id="t_bag_n_tag">
</g>
<g id="hat">
</g>
<g id="balloon">
</g>
<g id="page_4_back">
	<g>
		<path d="M76.66,232.64c-3.47,0-4.62,0.07-6.73,0.34v-12.03c2.52,0.34,4.15,0.41,8.91,0.41h5.44c3.47,0,5.98-0.07,8.97-0.34
			c-0.34,2.58-0.48,4.83-0.48,9.25v7.62c0,4.83,0.07,7,0.48,10.13c-3.74,2.38-5.58,3.26-8.64,4.28c-4.42,1.5-9.38,2.31-14.41,2.31
			c-8.64,0-15.37-2.38-20.19-7.28c-5.17-5.17-8.02-13.26-8.02-22.57c0-17.88,10.81-29.24,27.95-29.24c8.5,0,14.96,2.65,19.45,8.09
			c1.84,2.11,2.92,4.15,4.01,7.41l-13.87,3.2c-0.75-2.45-1.56-3.74-3.06-4.9c-1.77-1.43-4.01-2.11-6.87-2.11
			c-8.7,0-13.46,6.32-13.46,17.75c0,6.32,1.43,11.22,4.15,14.21c2.18,2.38,5.51,3.67,9.79,3.67c3.6,0,6.53-0.75,9.86-2.45v-7.75
			H76.66z"/>
		<path d="M154.04,224.76c0,17.95-10.95,29.85-27.47,29.85c-16.66,0-27.4-11.63-27.4-29.65c0-17.95,10.74-29.44,27.47-29.44
			S154.04,206.94,154.04,224.76z M139.9,224.89c0-11.01-5.03-17.68-13.26-17.68c-8.3,0-13.4,6.73-13.4,17.68
			c0,11.08,5.1,17.95,13.4,17.95C134.86,242.84,139.9,236.04,139.9,224.89z"/>
		<path d="M195.92,234.89c0.27,2.45,0.75,3.67,1.77,5.03c1.63,2.04,4.49,3.2,7.96,3.2c5.24,0,8.36-2.31,8.36-6.12
			c0-2.11-1.09-3.94-2.86-4.76c-1.43-0.68-3.13-1.16-10.2-2.79c-6.26-1.36-8.43-2.18-10.95-3.94c-4.28-2.99-6.6-7.55-6.6-13.05
			c0-10.47,8.43-17.07,21.83-17.07c8.64,0,15.23,2.65,18.9,7.75c1.7,2.24,2.52,4.28,3.4,8.16l-14.41,1.56
			c-0.82-4.42-3.26-6.26-8.43-6.26c-4.15,0-7.21,2.24-7.21,5.37c0,1.9,1.02,3.33,3.2,4.35c1.36,0.61,1.36,0.61,9.38,2.24
			c5.17,1.09,8.43,2.24,11.02,3.88c4.9,3.06,7.34,7.62,7.34,13.87c0,5.1-1.63,9.45-4.76,12.51c-3.94,3.81-9.93,5.78-17.88,5.78
			c-5.78,0-11.49-1.22-15.16-3.33c-3.4-1.9-5.92-4.83-7.34-8.7c-0.68-1.63-1.02-3.2-1.5-6.32L195.92,234.89z"/>
		<path d="M286.49,196.74c-0.41,2.79-0.54,5.3-0.54,10.06v36.44c0,4.42,0.14,6.73,0.54,10.06h-14.62c0.41-2.86,0.54-5.37,0.54-10.06
			v-13.19H249.5v13.19c0,4.42,0.14,7,0.54,10.06h-14.62c0.41-2.79,0.54-5.3,0.54-10.06V206.8c0-4.69-0.14-7.14-0.54-10.06h14.62
			c-0.41,3.2-0.54,5.85-0.54,10.06v11.29h22.91V206.8c0-4.69-0.14-7.41-0.54-10.06H286.49z"/>
		<path d="M333.55,253.31c-0.54-3.26-0.95-5.03-1.63-7.34l-1.84-5.78H310.7l-1.84,5.78c-0.88,2.72-1.36,4.83-1.7,7.34h-15.91
			c1.02-2.04,1.63-3.67,3.26-8.3l14.69-40.93c1.22-3.33,1.83-5.37,2.18-7.34h17.75c0.48,1.97,0.95,3.74,2.31,7.34l14.75,40.93
			c1.29,3.6,2.38,6.39,3.26,8.3H333.55z M320.29,208.37l-6.32,20.4h12.78L320.29,208.37z"/>
		<path d="M392.09,253.31c-0.27-2.18-0.75-4.56-1.43-7.28l-5.17-19.99c-0.68-2.65-1.22-5.78-1.9-10.27
			c-0.41,2.79-1.22,7.07-2.04,10.27l-5.03,20.06c-0.88,3.4-1.29,5.37-1.5,7.21h-13.53c-0.34-1.97-0.68-3.4-1.7-7.34l-10.88-40.8
			c-0.95-3.47-1.9-6.6-2.58-8.43h15.5c0.07,2.45,0.41,4.62,0.95,7.48l4.35,20.67c0.2,1.02,0.68,4.22,1.5,9.59
			c1.02-5.71,1.5-8.16,1.9-9.59l5.44-21.08c0.82-3.06,1.22-5.17,1.5-7.07h12.1c0.27,1.77,0.68,3.67,1.56,6.87l5.51,20.94
			c0.54,2.18,1.02,4.42,1.9,9.93c0.14-1.29,0.14-1.29,0.54-4.15c0.2-1.5,0.68-4.76,0.95-5.85l4.28-20.26
			c0.68-3.13,0.95-5.1,1.02-7.48h15.43c-0.68,1.84-1.63,5.03-2.52,8.43l-10.88,40.73c-0.88,3.2-1.5,5.78-1.7,7.41H392.09z"/>
		<path d="M454.58,243.05c0,4.08,0.14,7.07,0.54,10.27H440.1c0.41-3.2,0.54-5.98,0.54-10.27v-34.27h-8.02
			c-4.28,0-5.44,0.07-10.27,0.48v-12.99c2.24,0.27,5.98,0.48,10.13,0.48h29.78c4.76,0,7.48-0.14,10.61-0.48v12.99
			c-3.06-0.34-5.71-0.48-10.61-0.48h-7.68V243.05z"/>
		<path d="M520.74,253.79c-2.92-0.34-5.37-0.48-11.22-0.48H488.1c-5.17,0-7.07,0.07-9.99,0.2c0.41-2.72,0.54-5.24,0.54-9.93v-37.12
			c0-4.22-0.14-6.6-0.54-9.93c2.79,0.14,4.69,0.2,9.99,0.2h21.69c4.62,0,6.94-0.14,10.13-0.48v12.72
			c-3.13-0.34-5.58-0.48-10.13-0.48h-17.68v9.99h14.69c4.49,0,6.12-0.07,10.2-0.48v12.58c-3.2-0.34-5.51-0.48-10.2-0.48h-14.69
			v11.42h17.54c5.17,0,8.16-0.14,11.08-0.48V253.79z"/>
		<path d="M566.23,253.31c-0.54-3.26-0.95-5.03-1.63-7.34l-1.84-5.78h-19.38l-1.84,5.78c-0.88,2.72-1.36,4.83-1.7,7.34h-15.91
			c1.02-2.04,1.63-3.67,3.26-8.3l14.69-40.93c1.22-3.33,1.83-5.37,2.18-7.34h17.75c0.48,1.97,0.95,3.74,2.31,7.34l14.75,40.93
			c1.29,3.6,2.38,6.39,3.26,8.3H566.23z M552.97,208.37l-6.32,20.4h12.78L552.97,208.37z"/>
	</g>
</g>
</svg>
